<?xml version="1.0" encoding="utf-8"?>
<!-- Generator: Adobe Illustrator 23.1.0, SVG Export Plug-In . SVG Version: 6.00 Build 0)  -->
<svg version="1.1" id="Слой_1" xmlns="http://www.w3.org/2000/svg" xmlns:xlink="http://www.w3.org/1999/xlink" x="0px" y="0px"
	 viewBox="0 0 249 90" style="enable-background:new 0 0 249 90;" xml:space="preserve">
<style type="text/css">
	.st0{fill:#D9D9D9;}
</style>
<g>
	<g>
		<g>
			<path class="st0" d="M13.32,69.08c2.2-4.44,4.4-8.88,6.59-13.31c3.53-7.12,7.06-14.24,10.58-21.36c0.81-1.63,1.62-3.27,2.43-4.9
				c-1.6,0-3.19,0-4.79,0c2,4.49,3.99,8.98,5.99,13.47c3.19,7.17,6.37,14.34,9.56,21.5c0.74,1.66,1.47,3.31,2.21,4.97
				c0.61,1.37,2.6,1.69,3.8,1c1.41-0.83,1.61-2.42,1-3.8c-2-4.49-3.99-8.98-5.99-13.47c-3.19-7.17-6.37-14.34-9.56-21.5
				c-0.74-1.66-1.47-3.31-2.21-4.97c-0.83-1.87-3.92-1.76-4.79,0c-2.2,4.44-4.4,8.88-6.59,13.31c-3.53,7.12-7.06,14.24-10.58,21.36
				c-0.81,1.63-1.62,3.27-2.43,4.9c-0.66,1.34-0.36,3,1,3.8C10.75,70.79,12.66,70.42,13.32,69.08L13.32,69.08z"/>
		</g>
	</g>
	<g>
		<g>
			<path class="st0" d="M52.54,28.1c0.11,11.34,0.22,22.68,0.32,34.02c0.02,1.61,0.03,3.21,0.05,4.82c0.01,1.48,1.26,2.8,2.77,2.77
				c6.26-0.11,12.52-0.22,18.78-0.32c0.89-0.02,1.79-0.03,2.68-0.05c3.57-0.06,3.58-5.61,0-5.55c-6.26,0.11-12.52,0.22-18.78,0.32
				c-0.89,0.02-1.79,0.03-2.68,0.05c0.92,0.92,1.85,1.85,2.77,2.77c-0.11-11.34-0.22-22.68-0.32-34.02
				c-0.02-1.61-0.03-3.21-0.05-4.82C58.06,24.53,52.51,24.52,52.54,28.1L52.54,28.1z"/>
		</g>
	</g>
	<g>
		<g>
			<path class="st0" d="M27.63,48.07c0,2.7,0,5.4,0,8.1c0,0.38,0,0.76,0,1.15c0,1.32,1.16,2.59,2.53,2.53
				c1.37-0.06,2.53-1.11,2.53-2.53c0-2.7,0-5.4,0-8.1c0-0.38,0-0.76,0-1.15c0-1.32-1.16-2.59-2.53-2.53
				C28.79,45.6,27.63,46.65,27.63,48.07L27.63,48.07z"/>
		</g>
	</g>
	<g>
		<g>
			<path class="st0" d="M82.14,26.99c0,12.31,0,24.62,0,36.92c0,1.75,0,3.5,0,5.25c0,3.57,5.55,3.58,5.55,0c0-12.31,0-24.62,0-36.92
				c0-1.75,0-3.5,0-5.25C87.68,23.42,82.14,23.41,82.14,26.99L82.14,26.99z"/>
		</g>
	</g>
	<g>
		<g>
			<path class="st0" d="M121.16,25.79c-9.79-1.8-21.95,0.8-26.81,10.34c-2.07,4.07-2.78,8.78-2.56,13.31
				c0.2,4.05,1.23,8.18,3.65,11.49c4.13,5.65,10.8,7.96,17.54,8.59c4.16,0.39,8.52,0.19,12.62-0.66c1.2-0.25,2.01-1.51,2.04-2.68
				c0.12-6.04,0.25-12.08,0.37-18.13c0.03-1.54-1.3-2.72-2.77-2.77c-3.21-0.12-6.41-0.25-9.62-0.37c-3.57-0.14-3.56,5.41,0,5.55
				c3.21,0.12,6.41,0.25,9.62,0.37c-0.92-0.92-1.85-1.85-2.77-2.77c-0.12,6.04-0.25,12.08-0.37,18.13c0.68-0.89,1.36-1.78,2.04-2.68
				c-0.24,0.05-0.48,0.09-0.72,0.13c-0.27,0.05-0.55,0.09-0.83,0.13c-0.7,0.11,0.5-0.05,0.14-0.02c-0.23,0.02-0.45,0.06-0.67,0.08
				c-2.14,0.24-4.31,0.35-6.47,0.29c-0.62-0.02-1.23-0.05-1.85-0.09c-0.32-0.02-0.63-0.05-0.95-0.08c-0.2-0.02-1.44-0.18-0.61-0.06
				c-1.37-0.2-2.74-0.46-4.07-0.85c-0.64-0.18-1.28-0.39-1.9-0.63c-0.19-0.07-0.37-0.15-0.56-0.22c0.62,0.25,0.17,0.07,0.02,0
				c-0.33-0.16-0.67-0.31-0.99-0.48c-0.62-0.33-1.23-0.69-1.81-1.09c-0.14-0.1-0.27-0.2-0.41-0.29c-0.56-0.39,0.43,0.4-0.08-0.06
				c-0.28-0.25-0.57-0.48-0.84-0.74c-0.53-0.5-1.02-1.04-1.47-1.61c0.41,0.53-0.21-0.32-0.31-0.48c-0.24-0.37-0.47-0.75-0.67-1.14
				c-0.18-0.33-0.34-0.68-0.5-1.02c0.25,0.56-0.18-0.49-0.24-0.66c-0.31-0.88-0.54-1.78-0.71-2.69c-0.27-1.44-0.37-3.82-0.25-5.84
				c0.07-1.16,0.11-1.51,0.31-2.56c0.18-0.97,0.43-1.94,0.75-2.88c0.08-0.24,0.17-0.48,0.26-0.72c0.04-0.09,0.2-0.5,0-0.02
				c0.16-0.37,0.33-0.73,0.51-1.08c0.38-0.74,0.83-1.44,1.31-2.12c0.43-0.6-0.37,0.43,0.1-0.12c0.09-0.11,0.18-0.22,0.28-0.33
				c0.25-0.29,0.52-0.57,0.8-0.84c0.25-0.24,0.5-0.47,0.76-0.7c0.13-0.11,0.26-0.22,0.39-0.33c0.42-0.36-0.43,0.28,0.16-0.12
				c0.58-0.39,1.16-0.77,1.77-1.11c0.29-0.16,0.58-0.3,0.87-0.45c0.12-0.06,0.24-0.11,0.35-0.16c0.43-0.22-0.51,0.18,0.23-0.1
				c1.24-0.47,2.5-0.85,3.8-1.11c0.36-0.07,0.71-0.14,1.07-0.2c0.12-0.02,0.24-0.03,0.35-0.06c0.51-0.09-0.67,0.07,0.14-0.02
				c0.64-0.07,1.29-0.13,1.93-0.17c1.15-0.06,2.3-0.07,3.45-0.02c0.83,0.04,1.65,0.12,2.47,0.21c0.62,0.06-0.75-0.12-0.28-0.04
				c0.09,0.02,0.19,0.03,0.28,0.04c0.08,0.01,0.16,0.02,0.24,0.04c1.47,0.27,2.99-0.41,3.41-1.94
				C123.47,27.85,122.64,26.06,121.16,25.79L121.16,25.79z"/>
		</g>
	</g>
	<g>
		<g>
			<path class="st0" d="M137.62,66.57c0-11.02,0-22.03,0-33.05c0-1.56,0-3.12,0-4.69c-0.68,0.89-1.36,1.78-2.04,2.68
				c0.16-0.03,0.31-0.06,0.47-0.08c0.18-0.02,0.35-0.05,0.53-0.08c0.74-0.12-0.68,0.07,0.15-0.02c1.46-0.16,2.93-0.27,4.4-0.26
				c0.9,0,1.8,0.04,2.69,0.12c0.24,0.02,0.48,0.05,0.72,0.08c-0.49-0.05-0.21-0.03,0.09,0.02c0.48,0.08,0.96,0.17,1.44,0.28
				c0.44,0.1,0.88,0.22,1.31,0.36c0.23,0.07,0.46,0.15,0.69,0.24c0.1,0.03,0.19,0.08,0.29,0.11c0.37,0.13-0.44-0.21-0.09-0.04
				c0.4,0.19,0.8,0.38,1.19,0.61c0.18,0.1,0.35,0.21,0.52,0.32c0.2,0.13,0.71,0.57,0.26,0.17c0.33,0.3,0.66,0.58,0.96,0.91
				c0.11,0.13,0.53,0.7,0.15,0.16c0.14,0.2,0.28,0.41,0.41,0.62c0.13,0.22,0.24,0.44,0.36,0.66c0.25,0.46-0.1-0.34,0.07,0.16
				c0.18,0.53,0.34,1.06,0.45,1.61c0.02,0.12,0.05,0.25,0.07,0.37c0.07,0.44-0.04-0.42,0,0.04c0.02,0.27,0.04,0.55,0.05,0.82
				c0.02,0.66,0,1.31-0.06,1.96c-0.03,0.34,0.01-0.04,0.01-0.09c-0.03,0.17-0.06,0.33-0.09,0.5c-0.05,0.24-0.11,0.48-0.17,0.71
				c-0.06,0.23-0.14,0.45-0.21,0.67c-0.16,0.49-0.02,0.07,0.03-0.03c-0.06,0.13-0.12,0.27-0.19,0.4c-0.22,0.41-0.46,0.8-0.72,1.19
				c-0.17,0.26,0.1-0.13,0.12-0.15c-0.09,0.1-0.17,0.21-0.27,0.31c-0.16,0.17-0.33,0.35-0.5,0.51c-0.17,0.16-0.35,0.31-0.53,0.47
				c0.35-0.31,0.15-0.1-0.09,0.05c-0.39,0.26-0.8,0.51-1.22,0.73c-0.18,0.09-0.37,0.17-0.55,0.27c-0.43,0.22,0.43-0.14-0.18,0.07
				c-0.45,0.16-0.9,0.32-1.35,0.45c-0.87,0.25-1.76,0.41-2.66,0.55c0.64-0.1,0.05-0.01-0.23,0.02c-0.22,0.02-0.44,0.04-0.66,0.06
				c-0.45,0.03-0.91,0.06-1.36,0.07c-0.79,0.02-1.59,0.01-2.38-0.03c-0.58-0.03-1.16-0.08-1.73-0.13c-0.16-0.02-0.33-0.06-0.49-0.06
				c0.02,0,0.94,0.13,0.52,0.07c-0.25,1.82-0.49,3.63-0.74,5.45c3.45,0.25,6.9,0.49,10.36,0.74c-0.65-0.27-1.31-0.54-1.96-0.81
				c4.09,4.74,8.18,9.47,12.27,14.21c0.6,0.69,1.19,1.38,1.79,2.07c0.98,1.13,2.92,1,3.92,0c1.13-1.13,0.98-2.79,0-3.92
				c-2.96-3.42-5.92-6.85-8.87-10.27c-1.55-1.8-3.11-3.6-4.66-5.4c-0.69-0.8-1.32-1.3-2.49-1.41c-0.82-0.08-1.64-0.12-2.46-0.18
				c-2.63-0.19-5.26-0.38-7.89-0.56c-3.08-0.22-3.84,4.97-0.74,5.45c6.85,1.06,15.61,0.25,19.9-5.89c3.08-4.4,2.84-11.32-0.41-15.55
				c-2.97-3.86-7.84-5.21-12.49-5.56c-3.04-0.23-6.21-0.03-9.21,0.57c-1.18,0.23-2.04,1.52-2.04,2.68c0,11.02,0,22.03,0,33.05
				c0,1.56,0,3.12,0,4.69C132.07,70.14,137.62,70.14,137.62,66.57L137.62,66.57z"/>
		</g>
	</g>
	<g>
		<g>
			<path class="st0" d="M215.67,77.66c0-5.38,0-10.75,0-16.13c0-8.57,0-17.13,0-25.7c0-1.96,0-3.93,0-5.89
				c-0.68,0.89-1.36,1.78-2.04,2.68c0.57-0.15,1.15-0.26,1.73-0.38c0.62-0.12,1.24-0.23,1.86-0.32c0.17-0.02,0.33-0.05,0.5-0.07
				c0.31-0.04-0.33,0.04-0.3,0.04c0.12-0.01,0.24-0.03,0.36-0.04c0.4-0.05,0.81-0.09,1.21-0.13c1.81-0.16,3.63-0.21,5.44-0.05
				c0.21,0.02,0.42,0.04,0.63,0.06c0.52,0.05-0.52-0.1,0.19,0.03c0.44,0.08,0.87,0.16,1.31,0.27c0.42,0.1,0.84,0.23,1.25,0.37
				c0.1,0.03,0.68,0.27,0.31,0.11c-0.37-0.15,0.36,0.18,0.45,0.23c0.34,0.18,0.64,0.4,0.97,0.59c0.26,0.15-0.18-0.15-0.19-0.15
				c0.09,0.08,0.19,0.16,0.28,0.24c0.16,0.15,0.31,0.3,0.47,0.46c0.07,0.07,0.45,0.54,0.21,0.22c-0.25-0.33,0.17,0.27,0.21,0.35
				c0.1,0.17,0.18,0.35,0.28,0.51c0.22,0.36-0.1-0.41,0.07,0.18c0.13,0.46,0.25,0.9,0.33,1.37c-0.09-0.51-0.01-0.04,0,0.2
				c0.01,0.34,0.02,0.67,0.01,1.01c-0.01,0.27-0.03,0.54-0.05,0.81c0.05-0.47-0.01,0.09-0.05,0.27c-0.05,0.23-0.1,0.47-0.17,0.7
				c-0.05,0.18-0.36,0.95-0.11,0.4c-0.18,0.39-0.42,0.74-0.62,1.12c-0.21,0.4,0.29-0.27-0.13,0.18c-0.16,0.17-0.32,0.35-0.49,0.52
				c-0.15,0.14-0.3,0.27-0.45,0.4c0.5-0.45-0.02,0.01-0.17,0.11c-0.37,0.24-0.76,0.45-1.15,0.65c-0.12,0.06-0.25,0.12-0.37,0.17
				c0.02-0.01,0.48-0.19,0.18-0.08c-0.2,0.07-0.39,0.15-0.59,0.21c-0.46,0.16-0.94,0.28-1.41,0.39c-0.41,0.09-0.83,0.17-1.24,0.24
				c-0.72,0.13,0.31-0.01-0.2,0.03c-0.24,0.02-0.48,0.05-0.72,0.07c-1.81,0.15-3.63,0.1-5.43-0.09c-0.22-0.02-1.27-0.12-0.7-0.08
				c0.56,0.05-0.26-0.04-0.44-0.07c-0.22-0.04-0.43-0.07-0.65-0.11c-1.47-0.3-3,0.42-3.41,1.94c-0.38,1.37,0.46,3.11,1.94,3.41
				c6.7,1.36,16.05,1.22,20.25-5.09c2.77-4.16,2.4-10.8-1.37-14.25c-3.31-3.03-8.12-3.65-12.43-3.52c-3.01,0.09-6.11,0.48-9.03,1.23
				c-1.18,0.3-2.04,1.47-2.04,2.68c0,5.38,0,10.75,0,16.13c0,8.57,0,17.13,0,25.7c0,1.96,0,3.93,0,5.89
				C210.12,81.23,215.67,81.24,215.67,77.66L215.67,77.66z"/>
		</g>
	</g>
	<g>
		<g>
			<path class="st0" d="M171.09,68.52c2.2-4.44,4.4-8.88,6.59-13.31c3.53-7.12,7.06-14.24,10.58-21.36c0.81-1.63,1.62-3.27,2.43-4.9
				c-1.6,0-3.19,0-4.79,0c2,4.49,3.99,8.98,5.99,13.47c3.19,7.17,6.37,14.34,9.56,21.5c0.74,1.66,1.47,3.31,2.21,4.97
				c0.61,1.37,2.6,1.69,3.8,1c1.41-0.83,1.61-2.42,1-3.8c-2-4.49-3.99-8.98-5.99-13.47c-3.19-7.17-6.37-14.34-9.56-21.5
				c-0.74-1.66-1.47-3.31-2.21-4.97c-0.83-1.87-3.92-1.76-4.79,0c-2.2,4.44-4.4,8.88-6.59,13.31c-3.53,7.12-7.06,14.24-10.58,21.36
				c-0.81,1.63-1.62,3.27-2.43,4.9c-0.66,1.34-0.36,3,1,3.8C168.52,70.23,170.42,69.87,171.09,68.52L171.09,68.52z"/>
		</g>
	</g>
	<g>
		<g>
			<path class="st0" d="M185.27,46.59c0,2.97,0,5.94,0,8.91c0,0.42,0,0.84,0,1.26c0,1.39,1.22,2.72,2.66,2.66
				c1.44-0.06,2.66-1.17,2.66-2.66c0-2.97,0-5.94,0-8.91c0-0.42,0-0.84,0-1.26c0-1.39-1.22-2.72-2.66-2.66
				C186.49,44,185.27,45.1,185.27,46.59L185.27,46.59z"/>
		</g>
	</g>
</g>
</svg>
