<?xml version="1.0" encoding="utf-8"?>
<!-- Generator: Adobe Illustrator 23.1.0, SVG Export Plug-In . SVG Version: 6.00 Build 0)  -->
<svg version="1.1" id="Слой_1" xmlns="http://www.w3.org/2000/svg" xmlns:xlink="http://www.w3.org/1999/xlink" x="0px" y="0px"
	 viewBox="0 0 123 105" style="enable-background:new 0 0 123 105;" xml:space="preserve">
<style type="text/css">
	.st0{fill:#E7E6E6;}
</style>
<g>
	<path class="st0" d="M19.5,72.3c6.4-7.2,13.8-16.8,20.6-29.1C48.2,28.6,52.6,15,55.2,4.5c3,10.7,7.8,23.9,15.7,38.2
		c6.6,12,13.7,21.8,20.1,29.4c-2.2,4.3-5.1,9.1-8.6,14.1c-3.7,5.2-7.4,9.6-10.8,13.2c-2.8-3.1-5.9-7.2-8.8-12.4
		c-3.7-6.6-5.9-12.7-7.1-17.5c-1.5,5.2-4.1,12-8.5,19c-2.8,4.4-5.7,8.1-8.4,11c-3.3-4.3-6.7-8.8-10.1-13.7
		C25.3,81.3,22.2,76.7,19.5,72.3z"/>
	<path class="st0" d="M74.2,41.2c2.1-2.6,4.5-5.9,6.6-9.7c3.2-5.6,5.2-10.9,6.4-15.2c1.5,7,4.5,16.3,10.6,25.8
		c2.2,3.4,4.4,6.3,6.6,8.8c-3.5,6.4-6.9,12.8-10.4,19.2c-3.6-4.3-7.3-9.1-11-14.6C79.6,50.5,76.7,45.7,74.2,41.2z"/>
	<path class="st0" d="M36.9,41.2c-2.1-2.6-4.5-5.9-6.6-9.7c-3.2-5.6-5.2-10.9-6.4-15.2c-1.5,7-4.5,16.3-10.6,25.8
		c-2.2,3.4-4.4,6.3-6.6,8.8c3.5,6.4,6.9,12.8,10.4,19.2c3.6-4.3,7.3-9.1,11-14.6C31.5,50.5,34.4,45.7,36.9,41.2z"/>
	<path class="st0" d="M87.7,84.4c2.2-3,4.4-6.8,6.6-10.2c1.9,2,3.8,4,5.7,6c1.4,1.4,2.8,2.2,4.2,4.2C98.7,84.4,93.2,84.4,87.7,84.4z
		"/>
	<path class="st0" d="M23,84.4c-2.2-3-4.4-6.8-6.6-10.2c-1.9,2-3.8,4-5.7,6c-1.4,1.4-2.8,2.2-4.2,4.2C12,84.4,17.5,84.4,23,84.4z"/>
</g>
</svg>
