<?xml version="1.0" encoding="utf-8"?>
<!-- Generator: Adobe Illustrator 23.1.0, SVG Export Plug-In . SVG Version: 6.00 Build 0)  -->
<svg version="1.1" id="Слой_1" xmlns="http://www.w3.org/2000/svg" xmlns:xlink="http://www.w3.org/1999/xlink" x="0px" y="0px"
	 viewBox="0 0 40 37.6" style="enable-background:new 0 0 40 37.6;" xml:space="preserve">
<style type="text/css">
	.st0{fill:#E52521;}
</style>
<g>
	<path class="st0" d="M33.03,6.63l0.62,0.88c-2.51,1.89-5.3,4.79-8.37,8.72s-5.41,7.59-7.03,11l-1.3,0.88
		c-1.08,0.75-1.81,1.31-2.2,1.67c-0.15-0.55-0.49-1.45-1-2.71l-0.49-1.14c-0.7-1.64-1.36-2.85-1.96-3.64s-1.28-1.31-2.03-1.56
		c1.27-1.34,2.43-2,3.48-2c0.9,0,1.9,1.22,3.01,3.67l0.54,1.23c1.98-3.34,4.52-6.59,7.63-9.74S30.06,8.31,33.03,6.63z"/>
</g>
</svg>
