<?xml version="1.0" encoding="utf-8"?>
<!-- Generator: Adobe Illustrator 23.1.0, SVG Export Plug-In . SVG Version: 6.00 Build 0)  -->
<svg version="1.1" id="Слой_1" xmlns="http://www.w3.org/2000/svg" xmlns:xlink="http://www.w3.org/1999/xlink" x="0px" y="0px"
	 viewBox="0 0 137 102" style="enable-background:new 0 0 137 102;" xml:space="preserve">
<style type="text/css">
	.st0{fill:none;stroke:#FFFFFF;stroke-width:6.0422;stroke-miterlimit:10;}
	.st1{fill:#FFFFFF;}
	.st2{fill:none;stroke:#FFFFFF;stroke-width:1.5916;stroke-miterlimit:10;}
</style>
<g>
	<path class="st0" d="M98.48,87.9H48.92l-10.47,6.5l0.06-6.5c-8.23,0-14.96-8.26-14.96-18.35V37.52c0-10.09,6.73-18.35,14.96-18.35
		h59.96c8.23,0,14.96,8.26,14.96,18.35v32.02C113.44,79.64,106.71,87.9,98.48,87.9z"/>
	<path class="st1" d="M52.34,30.44c2.49,2.19,5.34,6.14,7.58,8.53c-1.06,1.79-2.68,3.79-5.06,4.31c-2.04,0.44-3.28-0.5-3.93,0.15
		c-1.3,1.3,1.81,6.92,5.06,11.03c2.07,2.61,6.76,7.85,14.43,10.88c3.3,1.3,7.68,2.4,8.46,1.13c0.44-0.72-0.6-1.63-0.53-3.17
		c0.1-2.25,2.47-4.01,4.68-5.21c3.27,2.06,6.55,4.13,9.82,6.19c-0.05,0.31-0.1,0.66-0.16,1.05c-0.59,4.02-3.21,7.43-6.9,9.13
		c-0.01,0.01-2.11,1-2.13,1c-5.24,1.51-14.96-0.8-26.69-11.18C46.6,55.1,39.49,44.42,41.06,40.06l0.01-0.02
		c1.27-3.54,3.86-6.5,7.28-8.06C49.31,31.54,51.55,30.66,52.34,30.44"/>
	<path class="st2" d="M69.38,36.63c1.34,0.1,5.62,0.57,9.46,3.98c3.97,3.52,4.9,7.9,5.13,9.2"/>
	<path class="st2" d="M69.09,42.55c0.81,0.06,3.38,0.34,5.68,2.39c2.38,2.12,2.94,4.74,3.08,5.52"/>
	<path class="st2" d="M69.56,30.86c1.89,0.13,7.9,0.8,13.3,5.59c5.58,4.95,6.89,11.1,7.21,12.93"/>
</g>
</svg>
