<?xml version="1.0" encoding="utf-8"?>
<!-- Generator: Adobe Illustrator 23.1.0, SVG Export Plug-In . SVG Version: 6.00 Build 0)  -->
<svg version="1.1" id="Слой_1" xmlns="http://www.w3.org/2000/svg" xmlns:xlink="http://www.w3.org/1999/xlink" x="0px" y="0px"
	 viewBox="0 0 116 98" style="enable-background:new 0 0 116 98;" xml:space="preserve">
<style type="text/css">
	.st0{fill:none;stroke:#FFFFFF;stroke-width:6.0422;stroke-miterlimit:10;}
	.st1{fill:#FFFFFF;stroke:#FFFFFF;stroke-width:2.1221;stroke-miterlimit:10;}
</style>
<g>
	<path class="st0" d="M95.92,43.81c0,20.94-16.98,37.92-37.92,37.92c-7.77,0-14.99-2.34-21-6.34l-14.65,2.87l4.26-13.16
		c-4.12-6.07-6.53-13.39-6.53-21.28C20.08,22.87,37.06,5.9,58,5.9C78.94,5.9,95.92,22.87,95.92,43.81z"/>
	<path class="st1" d="M43.85,19.59c2.49,2.19,5.34,6.14,7.58,8.53c-1.06,1.79-2.68,3.79-5.06,4.31c-2.04,0.44-3.28-0.5-3.93,0.15
		c-1.3,1.3,1.81,6.92,5.06,11.03c2.07,2.61,6.76,7.85,14.43,10.88c3.3,1.3,7.68,2.4,8.46,1.13c0.44-0.72-0.6-1.63-0.53-3.17
		c0.1-2.25,2.47-4.01,4.68-5.21c3.27,2.06,6.55,4.13,9.82,6.19c-0.05,0.31-0.1,0.66-0.16,1.05c-0.59,4.02-3.21,7.43-6.9,9.13
		c-0.01,0.01-2.11,1-2.13,1c-5.24,1.51-14.96-0.8-26.69-11.18c-10.37-9.19-17.48-19.86-15.91-24.22l0.01-0.02
		c1.27-3.54,3.86-6.5,7.28-8.06C40.83,20.68,43.06,19.81,43.85,19.59z"/>
</g>
</svg>
